<mxfile host="app.diagrams.net" agent="Mozilla/5.0 (Macintosh; Intel Mac OS X 10_15_7) AppleWebKit/537.36 (KHTML, like Gecko) Chrome/138.0.0.0 Safari/537.36" version="28.0.7">
  <diagram name="Pagina-1" id="pX6mvPdmHWL1DqITEzlt">
    <mxGraphModel dx="1975" dy="641" grid="1" gridSize="10" guides="1" tooltips="1" connect="1" arrows="1" fold="1" page="1" pageScale="1" pageWidth="827" pageHeight="1169" math="0" shadow="0">
      <root>
        <mxCell id="0" />
        <mxCell id="1" parent="0" />
        <mxCell id="3aQUeb-euFE-y9l26gwd-1" value="Airlines" style="swimlane;fontStyle=0;childLayout=stackLayout;horizontal=1;startSize=30;horizontalStack=0;resizeParent=1;resizeParentMax=0;resizeLast=0;collapsible=1;marginBottom=0;whiteSpace=wrap;html=1;" parent="1" vertex="1">
          <mxGeometry x="-270" y="315" width="190" height="150" as="geometry" />
        </mxCell>
        <mxCell id="3aQUeb-euFE-y9l26gwd-2" value="Name:string&amp;lt;&amp;lt;K&amp;gt;&amp;gt;" style="text;strokeColor=none;fillColor=none;align=left;verticalAlign=middle;spacingLeft=4;spacingRight=4;overflow=hidden;points=[[0,0.5],[1,0.5]];portConstraint=eastwest;rotatable=0;whiteSpace=wrap;html=1;" parent="3aQUeb-euFE-y9l26gwd-1" vertex="1">
          <mxGeometry y="30" width="190" height="30" as="geometry" />
        </mxCell>
        <mxCell id="3aQUeb-euFE-y9l26gwd-3" value="Password:string" style="text;strokeColor=none;fillColor=none;align=left;verticalAlign=middle;spacingLeft=4;spacingRight=4;overflow=hidden;points=[[0,0.5],[1,0.5]];portConstraint=eastwest;rotatable=0;whiteSpace=wrap;html=1;" parent="3aQUeb-euFE-y9l26gwd-1" vertex="1">
          <mxGeometry y="60" width="190" height="30" as="geometry" />
        </mxCell>
        <mxCell id="3aQUeb-euFE-y9l26gwd-4" value="Country:string" style="text;strokeColor=none;fillColor=none;align=left;verticalAlign=middle;spacingLeft=4;spacingRight=4;overflow=hidden;points=[[0,0.5],[1,0.5]];portConstraint=eastwest;rotatable=0;whiteSpace=wrap;html=1;" parent="3aQUeb-euFE-y9l26gwd-1" vertex="1">
          <mxGeometry y="90" width="190" height="30" as="geometry" />
        </mxCell>
        <mxCell id="3aQUeb-euFE-y9l26gwd-5" value="Motto:string" style="text;strokeColor=none;fillColor=none;align=left;verticalAlign=middle;spacingLeft=4;spacingRight=4;overflow=hidden;points=[[0,0.5],[1,0.5]];portConstraint=eastwest;rotatable=0;whiteSpace=wrap;html=1;" parent="3aQUeb-euFE-y9l26gwd-1" vertex="1">
          <mxGeometry y="120" width="190" height="30" as="geometry" />
        </mxCell>
        <mxCell id="3aQUeb-euFE-y9l26gwd-9" value="Users" style="swimlane;fontStyle=0;childLayout=stackLayout;horizontal=1;startSize=30;horizontalStack=0;resizeParent=1;resizeParentMax=0;resizeLast=0;collapsible=1;marginBottom=0;whiteSpace=wrap;html=1;" parent="1" vertex="1">
          <mxGeometry x="1580" y="330" width="140" height="180" as="geometry" />
        </mxCell>
        <mxCell id="3aQUeb-euFE-y9l26gwd-10" value="Id:SERIAL &amp;lt;&amp;lt;K&amp;gt;&amp;gt;" style="text;strokeColor=none;fillColor=none;align=left;verticalAlign=middle;spacingLeft=4;spacingRight=4;overflow=hidden;points=[[0,0.5],[1,0.5]];portConstraint=eastwest;rotatable=0;whiteSpace=wrap;html=1;" parent="3aQUeb-euFE-y9l26gwd-9" vertex="1">
          <mxGeometry y="30" width="140" height="30" as="geometry" />
        </mxCell>
        <mxCell id="3aQUeb-euFE-y9l26gwd-11" value="Name:string" style="text;strokeColor=none;fillColor=none;align=left;verticalAlign=middle;spacingLeft=4;spacingRight=4;overflow=hidden;points=[[0,0.5],[1,0.5]];portConstraint=eastwest;rotatable=0;whiteSpace=wrap;html=1;" parent="3aQUeb-euFE-y9l26gwd-9" vertex="1">
          <mxGeometry y="60" width="140" height="30" as="geometry" />
        </mxCell>
        <mxCell id="3aQUeb-euFE-y9l26gwd-12" value="Email:string" style="text;strokeColor=none;fillColor=none;align=left;verticalAlign=middle;spacingLeft=4;spacingRight=4;overflow=hidden;points=[[0,0.5],[1,0.5]];portConstraint=eastwest;rotatable=0;whiteSpace=wrap;html=1;" parent="3aQUeb-euFE-y9l26gwd-9" vertex="1">
          <mxGeometry y="90" width="140" height="30" as="geometry" />
        </mxCell>
        <mxCell id="3aQUeb-euFE-y9l26gwd-13" value="Password:string" style="text;strokeColor=none;fillColor=none;align=left;verticalAlign=middle;spacingLeft=4;spacingRight=4;overflow=hidden;points=[[0,0.5],[1,0.5]];portConstraint=eastwest;rotatable=0;whiteSpace=wrap;html=1;" parent="3aQUeb-euFE-y9l26gwd-9" vertex="1">
          <mxGeometry y="120" width="140" height="30" as="geometry" />
        </mxCell>
        <mxCell id="3aQUeb-euFE-y9l26gwd-14" value="Role:int" style="text;strokeColor=none;fillColor=none;align=left;verticalAlign=middle;spacingLeft=4;spacingRight=4;overflow=hidden;points=[[0,0.5],[1,0.5]];portConstraint=eastwest;rotatable=0;whiteSpace=wrap;html=1;" parent="3aQUeb-euFE-y9l26gwd-9" vertex="1">
          <mxGeometry y="150" width="140" height="30" as="geometry" />
        </mxCell>
        <mxCell id="3aQUeb-euFE-y9l26gwd-15" value="Tickets" style="swimlane;fontStyle=0;childLayout=stackLayout;horizontal=1;startSize=30;horizontalStack=0;resizeParent=1;resizeParentMax=0;resizeLast=0;collapsible=1;marginBottom=0;whiteSpace=wrap;html=1;" parent="1" vertex="1">
          <mxGeometry x="810" y="240" width="170" height="120" as="geometry" />
        </mxCell>
        <mxCell id="3aQUeb-euFE-y9l26gwd-16" value="Code:UUID &amp;lt;&amp;lt;K&amp;gt;&amp;gt;" style="text;strokeColor=none;fillColor=none;align=left;verticalAlign=middle;spacingLeft=4;spacingRight=4;overflow=hidden;points=[[0,0.5],[1,0.5]];portConstraint=eastwest;rotatable=0;whiteSpace=wrap;html=1;" parent="3aQUeb-euFE-y9l26gwd-15" vertex="1">
          <mxGeometry y="30" width="170" height="30" as="geometry" />
        </mxCell>
        <mxCell id="3aQUeb-euFE-y9l26gwd-17" value="Type:string" style="text;strokeColor=none;fillColor=none;align=left;verticalAlign=middle;spacingLeft=4;spacingRight=4;overflow=hidden;points=[[0,0.5],[1,0.5]];portConstraint=eastwest;rotatable=0;whiteSpace=wrap;html=1;" parent="3aQUeb-euFE-y9l26gwd-15" vertex="1">
          <mxGeometry y="60" width="170" height="30" as="geometry" />
        </mxCell>
        <mxCell id="3aQUeb-euFE-y9l26gwd-18" value="Price:double" style="text;strokeColor=none;fillColor=none;align=left;verticalAlign=middle;spacingLeft=4;spacingRight=4;overflow=hidden;points=[[0,0.5],[1,0.5]];portConstraint=eastwest;rotatable=0;whiteSpace=wrap;html=1;" parent="3aQUeb-euFE-y9l26gwd-15" vertex="1">
          <mxGeometry y="90" width="170" height="30" as="geometry" />
        </mxCell>
        <mxCell id="3aQUeb-euFE-y9l26gwd-26" value="Flights" style="swimlane;fontStyle=0;childLayout=stackLayout;horizontal=1;startSize=30;horizontalStack=0;resizeParent=1;resizeParentMax=0;resizeLast=0;collapsible=1;marginBottom=0;whiteSpace=wrap;html=1;" parent="1" vertex="1">
          <mxGeometry x="600" y="315" width="150" height="120" as="geometry" />
        </mxCell>
        <mxCell id="3aQUeb-euFE-y9l26gwd-27" value="Code:UUID&amp;lt;&amp;lt;K&amp;gt;&amp;gt;" style="text;strokeColor=none;fillColor=none;align=left;verticalAlign=middle;spacingLeft=4;spacingRight=4;overflow=hidden;points=[[0,0.5],[1,0.5]];portConstraint=eastwest;rotatable=0;whiteSpace=wrap;html=1;" parent="3aQUeb-euFE-y9l26gwd-26" vertex="1">
          <mxGeometry y="30" width="150" height="30" as="geometry" />
        </mxCell>
        <mxCell id="3aQUeb-euFE-y9l26gwd-28" value="LiftoffDate:date" style="text;strokeColor=none;fillColor=none;align=left;verticalAlign=middle;spacingLeft=4;spacingRight=4;overflow=hidden;points=[[0,0.5],[1,0.5]];portConstraint=eastwest;rotatable=0;whiteSpace=wrap;html=1;" parent="3aQUeb-euFE-y9l26gwd-26" vertex="1">
          <mxGeometry y="60" width="150" height="30" as="geometry" />
        </mxCell>
        <mxCell id="3aQUeb-euFE-y9l26gwd-29" value="Duration:int" style="text;strokeColor=none;fillColor=none;align=left;verticalAlign=middle;spacingLeft=4;spacingRight=4;overflow=hidden;points=[[0,0.5],[1,0.5]];portConstraint=eastwest;rotatable=0;whiteSpace=wrap;html=1;" parent="3aQUeb-euFE-y9l26gwd-26" vertex="1">
          <mxGeometry y="90" width="150" height="30" as="geometry" />
        </mxCell>
        <mxCell id="3aQUeb-euFE-y9l26gwd-33" value="Trips" style="swimlane;fontStyle=0;childLayout=stackLayout;horizontal=1;startSize=30;horizontalStack=0;resizeParent=1;resizeParentMax=0;resizeLast=0;collapsible=1;marginBottom=0;whiteSpace=wrap;html=1;" parent="1" vertex="1">
          <mxGeometry x="1310" y="555" width="160" height="90" as="geometry" />
        </mxCell>
        <mxCell id="3aQUeb-euFE-y9l26gwd-34" value="Id:SERIAL &amp;lt;&amp;lt;K&amp;gt;&amp;gt;" style="text;strokeColor=none;fillColor=none;align=left;verticalAlign=middle;spacingLeft=4;spacingRight=4;overflow=hidden;points=[[0,0.5],[1,0.5]];portConstraint=eastwest;rotatable=0;whiteSpace=wrap;html=1;" parent="3aQUeb-euFE-y9l26gwd-33" vertex="1">
          <mxGeometry y="30" width="160" height="30" as="geometry" />
        </mxCell>
        <mxCell id="3aQUeb-euFE-y9l26gwd-35" value="CreationDate:date" style="text;strokeColor=none;fillColor=none;align=left;verticalAlign=middle;spacingLeft=4;spacingRight=4;overflow=hidden;points=[[0,0.5],[1,0.5]];portConstraint=eastwest;rotatable=0;whiteSpace=wrap;html=1;" parent="3aQUeb-euFE-y9l26gwd-33" vertex="1">
          <mxGeometry y="60" width="160" height="30" as="geometry" />
        </mxCell>
        <mxCell id="3aQUeb-euFE-y9l26gwd-37" value="Seats" style="swimlane;fontStyle=0;childLayout=stackLayout;horizontal=1;startSize=30;horizontalStack=0;resizeParent=1;resizeParentMax=0;resizeLast=0;collapsible=1;marginBottom=0;whiteSpace=wrap;html=1;" parent="1" vertex="1">
          <mxGeometry x="440" y="680" width="180" height="90" as="geometry" />
        </mxCell>
        <mxCell id="3aQUeb-euFE-y9l26gwd-38" value="Id:SERIAL &amp;lt;&amp;lt;K&amp;gt;&amp;gt;" style="text;strokeColor=none;fillColor=none;align=left;verticalAlign=middle;spacingLeft=4;spacingRight=4;overflow=hidden;points=[[0,0.5],[1,0.5]];portConstraint=eastwest;rotatable=0;whiteSpace=wrap;html=1;" parent="3aQUeb-euFE-y9l26gwd-37" vertex="1">
          <mxGeometry y="30" width="180" height="30" as="geometry" />
        </mxCell>
        <mxCell id="3aQUeb-euFE-y9l26gwd-39" value="Position:string" style="text;strokeColor=none;fillColor=none;align=left;verticalAlign=middle;spacingLeft=4;spacingRight=4;overflow=hidden;points=[[0,0.5],[1,0.5]];portConstraint=eastwest;rotatable=0;whiteSpace=wrap;html=1;" parent="3aQUeb-euFE-y9l26gwd-37" vertex="1">
          <mxGeometry y="60" width="180" height="30" as="geometry" />
        </mxCell>
        <mxCell id="3aQUeb-euFE-y9l26gwd-41" value="Extras" style="swimlane;fontStyle=0;childLayout=stackLayout;horizontal=1;startSize=30;horizontalStack=0;resizeParent=1;resizeParentMax=0;resizeLast=0;collapsible=1;marginBottom=0;whiteSpace=wrap;html=1;" parent="1" vertex="1">
          <mxGeometry x="790" y="770" width="140" height="120" as="geometry" />
        </mxCell>
        <mxCell id="3aQUeb-euFE-y9l26gwd-42" value="Id:SERIAL &amp;lt;&amp;lt;K&amp;gt;&amp;gt;" style="text;strokeColor=none;fillColor=none;align=left;verticalAlign=middle;spacingLeft=4;spacingRight=4;overflow=hidden;points=[[0,0.5],[1,0.5]];portConstraint=eastwest;rotatable=0;whiteSpace=wrap;html=1;" parent="3aQUeb-euFE-y9l26gwd-41" vertex="1">
          <mxGeometry y="30" width="140" height="30" as="geometry" />
        </mxCell>
        <mxCell id="3aQUeb-euFE-y9l26gwd-43" value="Description:string" style="text;strokeColor=none;fillColor=none;align=left;verticalAlign=middle;spacingLeft=4;spacingRight=4;overflow=hidden;points=[[0,0.5],[1,0.5]];portConstraint=eastwest;rotatable=0;whiteSpace=wrap;html=1;" parent="3aQUeb-euFE-y9l26gwd-41" vertex="1">
          <mxGeometry y="60" width="140" height="30" as="geometry" />
        </mxCell>
        <mxCell id="3aQUeb-euFE-y9l26gwd-44" value="Price:double" style="text;strokeColor=none;fillColor=none;align=left;verticalAlign=middle;spacingLeft=4;spacingRight=4;overflow=hidden;points=[[0,0.5],[1,0.5]];portConstraint=eastwest;rotatable=0;whiteSpace=wrap;html=1;" parent="3aQUeb-euFE-y9l26gwd-41" vertex="1">
          <mxGeometry y="90" width="140" height="30" as="geometry" />
        </mxCell>
        <mxCell id="3aQUeb-euFE-y9l26gwd-45" value="Aircrafts" style="swimlane;fontStyle=0;childLayout=stackLayout;horizontal=1;startSize=30;horizontalStack=0;resizeParent=1;resizeParentMax=0;resizeLast=0;collapsible=1;marginBottom=0;whiteSpace=wrap;html=1;" parent="1" vertex="1">
          <mxGeometry x="30" y="620" width="210" height="120" as="geometry" />
        </mxCell>
        <mxCell id="3aQUeb-euFE-y9l26gwd-46" value="Id:SERIAL &amp;lt;&amp;lt;K&amp;gt;&amp;gt;" style="text;strokeColor=none;fillColor=none;align=left;verticalAlign=middle;spacingLeft=4;spacingRight=4;overflow=hidden;points=[[0,0.5],[1,0.5]];portConstraint=eastwest;rotatable=0;whiteSpace=wrap;html=1;" parent="3aQUeb-euFE-y9l26gwd-45" vertex="1">
          <mxGeometry y="30" width="210" height="30" as="geometry" />
        </mxCell>
        <mxCell id="3aQUeb-euFE-y9l26gwd-47" value="Model:string" style="text;strokeColor=none;fillColor=none;align=left;verticalAlign=middle;spacingLeft=4;spacingRight=4;overflow=hidden;points=[[0,0.5],[1,0.5]];portConstraint=eastwest;rotatable=0;whiteSpace=wrap;html=1;" parent="3aQUeb-euFE-y9l26gwd-45" vertex="1">
          <mxGeometry y="60" width="210" height="30" as="geometry" />
        </mxCell>
        <mxCell id="3aQUeb-euFE-y9l26gwd-48" value="SeatsCapacity:int" style="text;strokeColor=none;fillColor=none;align=left;verticalAlign=middle;spacingLeft=4;spacingRight=4;overflow=hidden;points=[[0,0.5],[1,0.5]];portConstraint=eastwest;rotatable=0;whiteSpace=wrap;html=1;" parent="3aQUeb-euFE-y9l26gwd-45" vertex="1">
          <mxGeometry y="90" width="210" height="30" as="geometry" />
        </mxCell>
        <mxCell id="3aQUeb-euFE-y9l26gwd-64" value="Bookings" style="swimlane;fontStyle=0;childLayout=stackLayout;horizontal=1;startSize=30;horizontalStack=0;resizeParent=1;resizeParentMax=0;resizeLast=0;collapsible=1;marginBottom=0;whiteSpace=wrap;html=1;" parent="1" vertex="1">
          <mxGeometry x="1011" y="540" width="169" height="60" as="geometry" />
        </mxCell>
        <mxCell id="3aQUeb-euFE-y9l26gwd-65" value="Id:SERIAL&amp;lt;&amp;lt;K&amp;gt;&amp;gt;" style="text;strokeColor=none;fillColor=none;align=left;verticalAlign=middle;spacingLeft=4;spacingRight=4;overflow=hidden;points=[[0,0.5],[1,0.5]];portConstraint=eastwest;rotatable=0;whiteSpace=wrap;html=1;" parent="3aQUeb-euFE-y9l26gwd-64" vertex="1">
          <mxGeometry y="30" width="169" height="30" as="geometry" />
        </mxCell>
        <mxCell id="3aQUeb-euFE-y9l26gwd-77" value="BlJWTs" style="swimlane;fontStyle=0;childLayout=stackLayout;horizontal=1;startSize=30;horizontalStack=0;resizeParent=1;resizeParentMax=0;resizeLast=0;collapsible=1;marginBottom=0;whiteSpace=wrap;html=1;" parent="1" vertex="1">
          <mxGeometry x="1690" y="660" width="170" height="120" as="geometry" />
        </mxCell>
        <mxCell id="3aQUeb-euFE-y9l26gwd-78" value="Id:SERIAL &amp;lt;&amp;lt;K&amp;gt;&amp;gt;" style="text;strokeColor=none;fillColor=none;align=left;verticalAlign=middle;spacingLeft=4;spacingRight=4;overflow=hidden;points=[[0,0.5],[1,0.5]];portConstraint=eastwest;rotatable=0;whiteSpace=wrap;html=1;" parent="3aQUeb-euFE-y9l26gwd-77" vertex="1">
          <mxGeometry y="30" width="170" height="30" as="geometry" />
        </mxCell>
        <mxCell id="3aQUeb-euFE-y9l26gwd-79" value="Jwt:string" style="text;strokeColor=none;fillColor=none;align=left;verticalAlign=middle;spacingLeft=4;spacingRight=4;overflow=hidden;points=[[0,0.5],[1,0.5]];portConstraint=eastwest;rotatable=0;whiteSpace=wrap;html=1;" parent="3aQUeb-euFE-y9l26gwd-77" vertex="1">
          <mxGeometry y="60" width="170" height="30" as="geometry" />
        </mxCell>
        <mxCell id="kgwtjrE0FstHuXd1rFe7-1" value="CreationDate:TIMESTAMP" style="text;strokeColor=none;fillColor=none;align=left;verticalAlign=middle;spacingLeft=4;spacingRight=4;overflow=hidden;points=[[0,0.5],[1,0.5]];portConstraint=eastwest;rotatable=0;whiteSpace=wrap;html=1;" parent="3aQUeb-euFE-y9l26gwd-77" vertex="1">
          <mxGeometry y="90" width="170" height="30" as="geometry" />
        </mxCell>
        <mxCell id="Vh7ybCmycij3RCht1qAK-20" value="Airports" style="swimlane;fontStyle=0;childLayout=stackLayout;horizontal=1;startSize=30;horizontalStack=0;resizeParent=1;resizeParentMax=0;resizeLast=0;collapsible=1;marginBottom=0;whiteSpace=wrap;html=1;" parent="1" vertex="1">
          <mxGeometry x="320" y="10" width="140" height="250" as="geometry" />
        </mxCell>
        <mxCell id="Vh7ybCmycij3RCht1qAK-21" value="Id: SERIAL &amp;lt;&amp;lt;K&amp;gt;&amp;gt;" style="text;strokeColor=none;fillColor=none;align=left;verticalAlign=middle;spacingLeft=4;spacingRight=4;overflow=hidden;points=[[0,0.5],[1,0.5]];portConstraint=eastwest;rotatable=0;whiteSpace=wrap;html=1;" parent="Vh7ybCmycij3RCht1qAK-20" vertex="1">
          <mxGeometry y="30" width="140" height="40" as="geometry" />
        </mxCell>
        <mxCell id="Vh7ybCmycij3RCht1qAK-22" value="City:string" style="text;strokeColor=none;fillColor=none;align=left;verticalAlign=middle;spacingLeft=4;spacingRight=4;overflow=hidden;points=[[0,0.5],[1,0.5]];portConstraint=eastwest;rotatable=0;whiteSpace=wrap;html=1;" parent="Vh7ybCmycij3RCht1qAK-20" vertex="1">
          <mxGeometry y="70" width="140" height="30" as="geometry" />
        </mxCell>
        <mxCell id="Vh7ybCmycij3RCht1qAK-23" value="Name:string" style="text;strokeColor=none;fillColor=none;align=left;verticalAlign=middle;spacingLeft=4;spacingRight=4;overflow=hidden;points=[[0,0.5],[1,0.5]];portConstraint=eastwest;rotatable=0;whiteSpace=wrap;html=1;" parent="Vh7ybCmycij3RCht1qAK-20" vertex="1">
          <mxGeometry y="100" width="140" height="30" as="geometry" />
        </mxCell>
        <mxCell id="Vh7ybCmycij3RCht1qAK-24" value="TimeZone:string" style="text;strokeColor=none;fillColor=none;align=left;verticalAlign=middle;spacingLeft=4;spacingRight=4;overflow=hidden;points=[[0,0.5],[1,0.5]];portConstraint=eastwest;rotatable=0;whiteSpace=wrap;html=1;" parent="Vh7ybCmycij3RCht1qAK-20" vertex="1">
          <mxGeometry y="130" width="140" height="30" as="geometry" />
        </mxCell>
        <mxCell id="Vh7ybCmycij3RCht1qAK-25" value="Country:string" style="text;strokeColor=none;fillColor=none;align=left;verticalAlign=middle;spacingLeft=4;spacingRight=4;overflow=hidden;points=[[0,0.5],[1,0.5]];portConstraint=eastwest;rotatable=0;whiteSpace=wrap;html=1;" parent="Vh7ybCmycij3RCht1qAK-20" vertex="1">
          <mxGeometry y="160" width="140" height="30" as="geometry" />
        </mxCell>
        <mxCell id="Q50AeV7Kv5rFn46oIAkc-2" value="Lat:double" style="text;strokeColor=none;fillColor=none;align=left;verticalAlign=middle;spacingLeft=4;spacingRight=4;overflow=hidden;points=[[0,0.5],[1,0.5]];portConstraint=eastwest;rotatable=0;whiteSpace=wrap;html=1;" parent="Vh7ybCmycij3RCht1qAK-20" vertex="1">
          <mxGeometry y="190" width="140" height="30" as="geometry" />
        </mxCell>
        <mxCell id="Q50AeV7Kv5rFn46oIAkc-1" value="Lan:double" style="text;strokeColor=none;fillColor=none;align=left;verticalAlign=middle;spacingLeft=4;spacingRight=4;overflow=hidden;points=[[0,0.5],[1,0.5]];portConstraint=eastwest;rotatable=0;whiteSpace=wrap;html=1;" parent="Vh7ybCmycij3RCht1qAK-20" vertex="1">
          <mxGeometry y="220" width="140" height="30" as="geometry" />
        </mxCell>
        <mxCell id="kgwtjrE0FstHuXd1rFe7-4" value="BoughtBy" style="text;html=1;align=center;verticalAlign=middle;resizable=0;points=[];autosize=1;strokeColor=none;fillColor=none;" parent="1" vertex="1">
          <mxGeometry x="-180" y="660" width="80" height="30" as="geometry" />
        </mxCell>
        <mxCell id="kgwtjrE0FstHuXd1rFe7-5" value="BelongsTo" style="text;html=1;align=center;verticalAlign=middle;resizable=0;points=[];autosize=1;strokeColor=none;fillColor=none;" parent="1" vertex="1">
          <mxGeometry x="330" y="718" width="80" height="30" as="geometry" />
        </mxCell>
        <mxCell id="kgwtjrE0FstHuXd1rFe7-6" value="Use" style="text;html=1;align=center;verticalAlign=middle;resizable=0;points=[];autosize=1;strokeColor=none;fillColor=none;" parent="1" vertex="1">
          <mxGeometry x="570" y="500" width="40" height="30" as="geometry" />
        </mxCell>
        <mxCell id="kgwtjrE0FstHuXd1rFe7-11" value="SoldBy" style="text;html=1;align=center;verticalAlign=middle;resizable=0;points=[];autosize=1;strokeColor=none;fillColor=none;" parent="1" vertex="1">
          <mxGeometry x="370" y="390" width="60" height="30" as="geometry" />
        </mxCell>
        <mxCell id="kgwtjrE0FstHuXd1rFe7-14" value="RefersTo" style="text;html=1;align=center;verticalAlign=middle;resizable=0;points=[];autosize=1;strokeColor=none;fillColor=none;" parent="1" vertex="1">
          <mxGeometry x="750" y="368" width="70" height="30" as="geometry" />
        </mxCell>
        <mxCell id="kgwtjrE0FstHuXd1rFe7-15" value="Choose" style="text;html=1;align=center;verticalAlign=middle;resizable=0;points=[];autosize=1;strokeColor=none;fillColor=none;" parent="1" vertex="1">
          <mxGeometry x="850" y="585" width="60" height="30" as="geometry" />
        </mxCell>
        <mxCell id="kgwtjrE0FstHuXd1rFe7-16" value="OptedFor" style="text;html=1;align=center;verticalAlign=middle;resizable=0;points=[];autosize=1;strokeColor=none;fillColor=none;" parent="1" vertex="1">
          <mxGeometry x="980" y="760" width="70" height="30" as="geometry" />
        </mxCell>
        <mxCell id="kgwtjrE0FstHuXd1rFe7-17" value="Ticket" style="text;html=1;align=center;verticalAlign=middle;resizable=0;points=[];autosize=1;strokeColor=none;fillColor=none;" parent="1" vertex="1">
          <mxGeometry x="900" y="465" width="60" height="30" as="geometry" />
        </mxCell>
        <mxCell id="kgwtjrE0FstHuXd1rFe7-18" value="FiguresInto" style="text;html=1;align=center;verticalAlign=middle;resizable=0;points=[];autosize=1;strokeColor=none;fillColor=none;" parent="1" vertex="1">
          <mxGeometry x="1201" y="555" width="80" height="30" as="geometry" />
        </mxCell>
        <mxCell id="kgwtjrE0FstHuXd1rFe7-19" value="PlannedBy" style="text;html=1;align=center;verticalAlign=middle;resizable=0;points=[];autosize=1;strokeColor=none;fillColor=none;" parent="1" vertex="1">
          <mxGeometry x="1574" y="610" width="80" height="30" as="geometry" />
        </mxCell>
        <mxCell id="MIx22FfydVjEeft8OLp_-5" value="" style="endArrow=classic;startArrow=classic;html=1;rounded=0;exitX=0.998;exitY=0.041;exitDx=0;exitDy=0;exitPerimeter=0;entryX=-0.027;entryY=-0.046;entryDx=0;entryDy=0;entryPerimeter=0;" edge="1" parent="1" source="3aQUeb-euFE-y9l26gwd-1" target="Vh7ybCmycij3RCht1qAK-22">
          <mxGeometry width="50" height="50" relative="1" as="geometry">
            <mxPoint x="160" y="280" as="sourcePoint" />
            <mxPoint x="260" y="100" as="targetPoint" />
            <Array as="points">
              <mxPoint x="-70" y="90" />
            </Array>
          </mxGeometry>
        </mxCell>
        <mxCell id="MIx22FfydVjEeft8OLp_-6" value="" style="endArrow=classic;startArrow=classic;html=1;rounded=0;" edge="1" parent="1">
          <mxGeometry width="50" height="50" relative="1" as="geometry">
            <mxPoint x="-80" y="310" as="sourcePoint" />
            <mxPoint x="300" y="80" as="targetPoint" />
            <Array as="points">
              <mxPoint x="-70" y="90" />
            </Array>
          </mxGeometry>
        </mxCell>
        <mxCell id="MIx22FfydVjEeft8OLp_-7" value="" style="endArrow=classic;startArrow=classic;html=1;rounded=0;exitX=0.998;exitY=0.041;exitDx=0;exitDy=0;exitPerimeter=0;entryX=-0.007;entryY=0.075;entryDx=0;entryDy=0;entryPerimeter=0;" edge="1" parent="1" target="Vh7ybCmycij3RCht1qAK-21">
          <mxGeometry width="50" height="50" relative="1" as="geometry">
            <mxPoint x="-120" y="315" as="sourcePoint" />
            <mxPoint x="276" y="73" as="targetPoint" />
            <Array as="points">
              <mxPoint x="-120" y="40" />
            </Array>
          </mxGeometry>
        </mxCell>
        <mxCell id="MIx22FfydVjEeft8OLp_-8" value="" style="endArrow=classic;startArrow=classic;html=1;rounded=0;" edge="1" parent="1">
          <mxGeometry width="50" height="50" relative="1" as="geometry">
            <mxPoint x="-120" y="300" as="sourcePoint" />
            <mxPoint x="310" y="40" as="targetPoint" />
            <Array as="points">
              <mxPoint x="-120" y="40" />
            </Array>
          </mxGeometry>
        </mxCell>
        <mxCell id="MIx22FfydVjEeft8OLp_-9" value="UsesRouteDestination" style="text;html=1;align=center;verticalAlign=middle;resizable=0;points=[];autosize=1;strokeColor=none;fillColor=none;" vertex="1" parent="1">
          <mxGeometry x="-150" y="10" width="140" height="30" as="geometry" />
        </mxCell>
        <mxCell id="MIx22FfydVjEeft8OLp_-10" value="" style="endArrow=classic;startArrow=classic;html=1;rounded=0;exitX=1.003;exitY=0.248;exitDx=0;exitDy=0;exitPerimeter=0;" edge="1" parent="1" source="Q50AeV7Kv5rFn46oIAkc-2">
          <mxGeometry width="50" height="50" relative="1" as="geometry">
            <mxPoint x="460" y="202" as="sourcePoint" />
            <mxPoint x="620" y="310" as="targetPoint" />
            <Array as="points">
              <mxPoint x="620" y="210" />
            </Array>
          </mxGeometry>
        </mxCell>
        <mxCell id="MIx22FfydVjEeft8OLp_-11" value="" style="endArrow=classic;startArrow=classic;html=1;rounded=0;entryX=0.147;entryY=-0.008;entryDx=0;entryDy=0;entryPerimeter=0;" edge="1" parent="1" target="3aQUeb-euFE-y9l26gwd-26">
          <mxGeometry width="50" height="50" relative="1" as="geometry">
            <mxPoint x="470" y="210" as="sourcePoint" />
            <mxPoint x="846" y="-34" as="targetPoint" />
            <Array as="points">
              <mxPoint x="622" y="210" />
            </Array>
          </mxGeometry>
        </mxCell>
        <mxCell id="MIx22FfydVjEeft8OLp_-12" value="" style="endArrow=classic;startArrow=classic;html=1;rounded=0;entryX=0;entryY=0;entryDx=0;entryDy=0;" edge="1" parent="1" target="3aQUeb-euFE-y9l26gwd-26">
          <mxGeometry width="50" height="50" relative="1" as="geometry">
            <mxPoint x="458" y="240" as="sourcePoint" />
            <mxPoint x="600" y="310" as="targetPoint" />
            <Array as="points">
              <mxPoint x="600" y="240" />
            </Array>
          </mxGeometry>
        </mxCell>
        <mxCell id="MIx22FfydVjEeft8OLp_-13" value="" style="endArrow=classic;startArrow=classic;html=1;rounded=0;" edge="1" parent="1">
          <mxGeometry width="50" height="50" relative="1" as="geometry">
            <mxPoint x="470" y="240" as="sourcePoint" />
            <mxPoint x="600" y="310" as="targetPoint" />
            <Array as="points">
              <mxPoint x="600" y="240" />
            </Array>
          </mxGeometry>
        </mxCell>
        <mxCell id="MIx22FfydVjEeft8OLp_-14" value="UsesRouteDeparture" style="text;html=1;align=center;verticalAlign=middle;resizable=0;points=[];autosize=1;strokeColor=none;fillColor=none;" vertex="1" parent="1">
          <mxGeometry x="-80" y="90" width="140" height="30" as="geometry" />
        </mxCell>
        <mxCell id="MIx22FfydVjEeft8OLp_-15" value="UsesAirportDeparture" style="text;html=1;align=center;verticalAlign=middle;resizable=0;points=[];autosize=1;strokeColor=none;fillColor=none;" vertex="1" parent="1">
          <mxGeometry x="550" y="170" width="140" height="30" as="geometry" />
        </mxCell>
        <mxCell id="MIx22FfydVjEeft8OLp_-16" value="UsesAirportDestination" style="text;html=1;align=center;verticalAlign=middle;resizable=0;points=[];autosize=1;strokeColor=none;fillColor=none;" vertex="1" parent="1">
          <mxGeometry x="455" y="260" width="150" height="30" as="geometry" />
        </mxCell>
        <mxCell id="MIx22FfydVjEeft8OLp_-17" value="" style="endArrow=none;html=1;rounded=0;" edge="1" parent="1">
          <mxGeometry width="50" height="50" relative="1" as="geometry">
            <mxPoint x="-110" y="280" as="sourcePoint" />
            <mxPoint x="-130" y="280" as="targetPoint" />
          </mxGeometry>
        </mxCell>
        <mxCell id="MIx22FfydVjEeft8OLp_-18" value="" style="endArrow=none;html=1;rounded=0;" edge="1" parent="1">
          <mxGeometry width="50" height="50" relative="1" as="geometry">
            <mxPoint x="280" y="50" as="sourcePoint" />
            <mxPoint x="280" y="30" as="targetPoint" />
          </mxGeometry>
        </mxCell>
        <mxCell id="MIx22FfydVjEeft8OLp_-19" value="" style="endArrow=none;html=1;rounded=0;" edge="1" parent="1">
          <mxGeometry width="50" height="50" relative="1" as="geometry">
            <mxPoint x="-70" y="294.73" as="sourcePoint" />
            <mxPoint x="-90" y="294.73" as="targetPoint" />
          </mxGeometry>
        </mxCell>
        <mxCell id="MIx22FfydVjEeft8OLp_-20" value="" style="endArrow=none;html=1;rounded=0;" edge="1" parent="1">
          <mxGeometry width="50" height="50" relative="1" as="geometry">
            <mxPoint x="280" y="90" as="sourcePoint" />
            <mxPoint x="280" y="70" as="targetPoint" />
          </mxGeometry>
        </mxCell>
        <mxCell id="MIx22FfydVjEeft8OLp_-21" value="" style="endArrow=none;html=1;rounded=0;" edge="1" parent="1">
          <mxGeometry width="50" height="50" relative="1" as="geometry">
            <mxPoint x="590" y="290" as="sourcePoint" />
            <mxPoint x="610" y="290" as="targetPoint" />
          </mxGeometry>
        </mxCell>
        <mxCell id="MIx22FfydVjEeft8OLp_-22" value="" style="endArrow=none;html=1;rounded=0;" edge="1" parent="1">
          <mxGeometry width="50" height="50" relative="1" as="geometry">
            <mxPoint x="610" y="280" as="sourcePoint" />
            <mxPoint x="630" y="280" as="targetPoint" />
          </mxGeometry>
        </mxCell>
        <mxCell id="MIx22FfydVjEeft8OLp_-23" value="" style="endArrow=classic;startArrow=classic;html=1;rounded=0;exitX=1.001;exitY=0.612;exitDx=0;exitDy=0;exitPerimeter=0;" edge="1" parent="1" source="3aQUeb-euFE-y9l26gwd-39">
          <mxGeometry width="50" height="50" relative="1" as="geometry">
            <mxPoint x="840" y="640" as="sourcePoint" />
            <mxPoint x="1009" y="580" as="targetPoint" />
            <Array as="points">
              <mxPoint x="760" y="760" />
              <mxPoint x="760" y="580" />
            </Array>
          </mxGeometry>
        </mxCell>
        <mxCell id="MIx22FfydVjEeft8OLp_-24" value="" style="endArrow=classic;startArrow=classic;html=1;rounded=0;entryX=0.89;entryY=0.916;entryDx=0;entryDy=0;entryPerimeter=0;exitX=1;exitY=0;exitDx=0;exitDy=0;exitPerimeter=0;" edge="1" parent="1" source="3aQUeb-euFE-y9l26gwd-42" target="3aQUeb-euFE-y9l26gwd-65">
          <mxGeometry width="50" height="50" relative="1" as="geometry">
            <mxPoint x="900" y="868" as="sourcePoint" />
            <mxPoint x="1289" y="690" as="targetPoint" />
            <Array as="points">
              <mxPoint x="1160" y="800" />
            </Array>
          </mxGeometry>
        </mxCell>
        <mxCell id="MIx22FfydVjEeft8OLp_-25" value="" style="endArrow=classic;startArrow=classic;html=1;rounded=0;entryX=0;entryY=0.5;entryDx=0;entryDy=0;" edge="1" parent="1" target="3aQUeb-euFE-y9l26gwd-34">
          <mxGeometry width="50" height="50" relative="1" as="geometry">
            <mxPoint x="1190" y="595" as="sourcePoint" />
            <mxPoint x="1230" y="590" as="targetPoint" />
          </mxGeometry>
        </mxCell>
        <mxCell id="MIx22FfydVjEeft8OLp_-26" value="" style="endArrow=classic;startArrow=classic;html=1;rounded=0;entryX=0.774;entryY=1.058;entryDx=0;entryDy=0;entryPerimeter=0;exitX=0.997;exitY=0.821;exitDx=0;exitDy=0;exitPerimeter=0;" edge="1" parent="1" source="3aQUeb-euFE-y9l26gwd-35" target="3aQUeb-euFE-y9l26gwd-14">
          <mxGeometry width="50" height="50" relative="1" as="geometry">
            <mxPoint x="1470" y="645" as="sourcePoint" />
            <mxPoint x="1710" y="445" as="targetPoint" />
            <Array as="points">
              <mxPoint x="1688" y="640" />
            </Array>
          </mxGeometry>
        </mxCell>
        <mxCell id="MIx22FfydVjEeft8OLp_-27" value="" style="endArrow=classic;startArrow=classic;html=1;rounded=0;exitX=1.008;exitY=-0.053;exitDx=0;exitDy=0;exitPerimeter=0;entryX=0;entryY=0;entryDx=0;entryDy=0;entryPerimeter=0;" edge="1" parent="1" source="3aQUeb-euFE-y9l26gwd-48" target="3aQUeb-euFE-y9l26gwd-38">
          <mxGeometry width="50" height="50" relative="1" as="geometry">
            <mxPoint x="420" y="640" as="sourcePoint" />
            <mxPoint x="470" y="590" as="targetPoint" />
          </mxGeometry>
        </mxCell>
        <mxCell id="MIx22FfydVjEeft8OLp_-29" value="" style="endArrow=classic;startArrow=classic;html=1;rounded=0;exitX=1.008;exitY=0.195;exitDx=0;exitDy=0;exitPerimeter=0;entryX=0.067;entryY=1.086;entryDx=0;entryDy=0;entryPerimeter=0;" edge="1" parent="1" source="3aQUeb-euFE-y9l26gwd-45" target="3aQUeb-euFE-y9l26gwd-29">
          <mxGeometry width="50" height="50" relative="1" as="geometry">
            <mxPoint x="420" y="640" as="sourcePoint" />
            <mxPoint x="470" y="590" as="targetPoint" />
            <Array as="points">
              <mxPoint x="610" y="650" />
            </Array>
          </mxGeometry>
        </mxCell>
        <mxCell id="MIx22FfydVjEeft8OLp_-30" value="" style="endArrow=classic;startArrow=classic;html=1;rounded=0;entryX=-0.004;entryY=-0.009;entryDx=0;entryDy=0;entryPerimeter=0;" edge="1" parent="1" target="3aQUeb-euFE-y9l26gwd-47">
          <mxGeometry width="50" height="50" relative="1" as="geometry">
            <mxPoint x="-100" y="470" as="sourcePoint" />
            <mxPoint x="-40" y="420" as="targetPoint" />
            <Array as="points">
              <mxPoint x="-100" y="680" />
            </Array>
          </mxGeometry>
        </mxCell>
        <mxCell id="MIx22FfydVjEeft8OLp_-31" value="" style="endArrow=classic;startArrow=classic;html=1;rounded=0;exitX=1;exitY=0.5;exitDx=0;exitDy=0;entryX=0;entryY=0.5;entryDx=0;entryDy=0;" edge="1" parent="1" source="3aQUeb-euFE-y9l26gwd-4" target="3aQUeb-euFE-y9l26gwd-29">
          <mxGeometry width="50" height="50" relative="1" as="geometry">
            <mxPoint x="200" y="470" as="sourcePoint" />
            <mxPoint x="250" y="420" as="targetPoint" />
          </mxGeometry>
        </mxCell>
        <mxCell id="MIx22FfydVjEeft8OLp_-32" value="" style="endArrow=classic;startArrow=classic;html=1;rounded=0;entryX=0.01;entryY=0.836;entryDx=0;entryDy=0;entryPerimeter=0;exitX=1.003;exitY=0.395;exitDx=0;exitDy=0;exitPerimeter=0;" edge="1" parent="1" source="3aQUeb-euFE-y9l26gwd-27" target="3aQUeb-euFE-y9l26gwd-18">
          <mxGeometry width="50" height="50" relative="1" as="geometry">
            <mxPoint x="750" y="360" as="sourcePoint" />
            <mxPoint x="760" y="350" as="targetPoint" />
          </mxGeometry>
        </mxCell>
        <mxCell id="MIx22FfydVjEeft8OLp_-33" value="" style="endArrow=classic;startArrow=classic;html=1;rounded=0;exitX=0;exitY=0;exitDx=0;exitDy=0;entryX=0.843;entryY=1.058;entryDx=0;entryDy=0;entryPerimeter=0;" edge="1" parent="1" source="3aQUeb-euFE-y9l26gwd-64" target="3aQUeb-euFE-y9l26gwd-18">
          <mxGeometry width="50" height="50" relative="1" as="geometry">
            <mxPoint x="910" y="510" as="sourcePoint" />
            <mxPoint x="960" y="460" as="targetPoint" />
            <Array as="points">
              <mxPoint x="953" y="540" />
            </Array>
          </mxGeometry>
        </mxCell>
        <mxCell id="MIx22FfydVjEeft8OLp_-34" value="" style="endArrow=classic;html=1;rounded=0;" edge="1" parent="1">
          <mxGeometry width="50" height="50" relative="1" as="geometry">
            <mxPoint x="-100" y="470" as="sourcePoint" />
            <mxPoint x="20" y="680" as="targetPoint" />
            <Array as="points">
              <mxPoint x="-100" y="680" />
            </Array>
          </mxGeometry>
        </mxCell>
        <mxCell id="MIx22FfydVjEeft8OLp_-35" value="" style="endArrow=none;html=1;rounded=0;" edge="1" parent="1">
          <mxGeometry width="50" height="50" relative="1" as="geometry">
            <mxPoint y="670" as="sourcePoint" />
            <mxPoint y="690" as="targetPoint" />
          </mxGeometry>
        </mxCell>
        <mxCell id="MIx22FfydVjEeft8OLp_-36" value="" style="endArrow=classic;startArrow=classic;html=1;rounded=0;exitX=1;exitY=0.5;exitDx=0;exitDy=0;" edge="1" parent="1">
          <mxGeometry width="50" height="50" relative="1" as="geometry">
            <mxPoint x="-80" y="419.58" as="sourcePoint" />
            <mxPoint x="570" y="420" as="targetPoint" />
          </mxGeometry>
        </mxCell>
        <mxCell id="MIx22FfydVjEeft8OLp_-37" value="" style="endArrow=none;html=1;rounded=0;" edge="1" parent="1">
          <mxGeometry width="50" height="50" relative="1" as="geometry">
            <mxPoint x="550" y="410" as="sourcePoint" />
            <mxPoint x="550" y="430" as="targetPoint" />
          </mxGeometry>
        </mxCell>
        <mxCell id="MIx22FfydVjEeft8OLp_-38" value="" style="endArrow=classic;startArrow=classic;html=1;rounded=0;exitX=1.008;exitY=0.195;exitDx=0;exitDy=0;exitPerimeter=0;" edge="1" parent="1">
          <mxGeometry width="50" height="50" relative="1" as="geometry">
            <mxPoint x="240" y="645" as="sourcePoint" />
            <mxPoint x="610" y="450" as="targetPoint" />
            <Array as="points">
              <mxPoint x="610" y="650" />
            </Array>
          </mxGeometry>
        </mxCell>
        <mxCell id="MIx22FfydVjEeft8OLp_-39" value="" style="endArrow=none;html=1;rounded=0;" edge="1" parent="1">
          <mxGeometry width="50" height="50" relative="1" as="geometry">
            <mxPoint x="620" y="465" as="sourcePoint" />
            <mxPoint x="600" y="465" as="targetPoint" />
          </mxGeometry>
        </mxCell>
        <mxCell id="MIx22FfydVjEeft8OLp_-40" value="" style="endArrow=classic;startArrow=classic;html=1;rounded=0;exitX=1;exitY=0.5;exitDx=0;exitDy=0;" edge="1" parent="1">
          <mxGeometry width="50" height="50" relative="1" as="geometry">
            <mxPoint x="620" y="758" as="sourcePoint" />
            <mxPoint x="1000" y="580" as="targetPoint" />
            <Array as="points">
              <mxPoint x="760" y="760" />
              <mxPoint x="760" y="580" />
            </Array>
          </mxGeometry>
        </mxCell>
        <mxCell id="MIx22FfydVjEeft8OLp_-41" value="" style="endArrow=none;html=1;rounded=0;" edge="1" parent="1">
          <mxGeometry width="50" height="50" relative="1" as="geometry">
            <mxPoint x="980" y="590" as="sourcePoint" />
            <mxPoint x="980" y="570" as="targetPoint" />
          </mxGeometry>
        </mxCell>
        <mxCell id="MIx22FfydVjEeft8OLp_-42" value="" style="endArrow=classic;startArrow=classic;html=1;rounded=0;entryX=0.843;entryY=1.058;entryDx=0;entryDy=0;entryPerimeter=0;" edge="1" parent="1">
          <mxGeometry width="50" height="50" relative="1" as="geometry">
            <mxPoint x="1000" y="540" as="sourcePoint" />
            <mxPoint x="953" y="362" as="targetPoint" />
            <Array as="points">
              <mxPoint x="953" y="540" />
            </Array>
          </mxGeometry>
        </mxCell>
        <mxCell id="MIx22FfydVjEeft8OLp_-43" value="" style="endArrow=none;html=1;rounded=0;" edge="1" parent="1">
          <mxGeometry width="50" height="50" relative="1" as="geometry">
            <mxPoint x="980" y="530" as="sourcePoint" />
            <mxPoint x="980" y="550" as="targetPoint" />
          </mxGeometry>
        </mxCell>
        <mxCell id="MIx22FfydVjEeft8OLp_-44" value="" style="endArrow=classic;startArrow=classic;html=1;rounded=0;entryX=0;entryY=0.5;entryDx=0;entryDy=0;exitX=1.002;exitY=0.816;exitDx=0;exitDy=0;exitPerimeter=0;" edge="1" parent="1" source="3aQUeb-euFE-y9l26gwd-65" target="3aQUeb-euFE-y9l26gwd-34">
          <mxGeometry width="50" height="50" relative="1" as="geometry">
            <mxPoint x="1200" y="600" as="sourcePoint" />
            <mxPoint x="1310" y="630" as="targetPoint" />
          </mxGeometry>
        </mxCell>
        <mxCell id="MIx22FfydVjEeft8OLp_-45" value="" style="endArrow=none;html=1;rounded=0;" edge="1" parent="1">
          <mxGeometry width="50" height="50" relative="1" as="geometry">
            <mxPoint x="950" y="810" as="sourcePoint" />
            <mxPoint x="950" y="790" as="targetPoint" />
          </mxGeometry>
        </mxCell>
        <mxCell id="MIx22FfydVjEeft8OLp_-46" value="" style="endArrow=classic;startArrow=classic;html=1;rounded=0;entryX=0.77;entryY=1.021;entryDx=0;entryDy=0;entryPerimeter=0;" edge="1" parent="1" target="3aQUeb-euFE-y9l26gwd-14">
          <mxGeometry width="50" height="50" relative="1" as="geometry">
            <mxPoint x="1480" y="640" as="sourcePoint" />
            <mxPoint x="1690" y="512" as="targetPoint" />
            <Array as="points">
              <mxPoint x="1690" y="640" />
            </Array>
          </mxGeometry>
        </mxCell>
        <mxCell id="MIx22FfydVjEeft8OLp_-47" value="" style="endArrow=none;html=1;rounded=0;" edge="1" parent="1">
          <mxGeometry width="50" height="50" relative="1" as="geometry">
            <mxPoint x="1500" y="650" as="sourcePoint" />
            <mxPoint x="1500" y="630" as="targetPoint" />
          </mxGeometry>
        </mxCell>
        <mxCell id="MIx22FfydVjEeft8OLp_-48" value="" style="endArrow=classic;startArrow=classic;html=1;rounded=0;exitX=0.999;exitY=0.376;exitDx=0;exitDy=0;exitPerimeter=0;" edge="1" parent="1" source="3aQUeb-euFE-y9l26gwd-27">
          <mxGeometry width="50" height="50" relative="1" as="geometry">
            <mxPoint x="750" y="360" as="sourcePoint" />
            <mxPoint x="800" y="355" as="targetPoint" />
          </mxGeometry>
        </mxCell>
        <mxCell id="MIx22FfydVjEeft8OLp_-50" value="" style="endArrow=classic;startArrow=classic;html=1;rounded=0;exitX=1.008;exitY=-0.053;exitDx=0;exitDy=0;exitPerimeter=0;" edge="1" parent="1">
          <mxGeometry width="50" height="50" relative="1" as="geometry">
            <mxPoint x="242" y="710" as="sourcePoint" />
            <mxPoint x="430" y="710" as="targetPoint" />
          </mxGeometry>
        </mxCell>
        <mxCell id="MIx22FfydVjEeft8OLp_-51" value="" style="endArrow=classic;startArrow=classic;html=1;rounded=0;exitX=1;exitY=0;exitDx=0;exitDy=0;exitPerimeter=0;" edge="1" parent="1">
          <mxGeometry width="50" height="50" relative="1" as="geometry">
            <mxPoint x="930" y="800" as="sourcePoint" />
            <mxPoint x="1160" y="610" as="targetPoint" />
            <Array as="points">
              <mxPoint x="1160" y="800" />
            </Array>
          </mxGeometry>
        </mxCell>
        <mxCell id="MIx22FfydVjEeft8OLp_-52" value="" style="endArrow=none;html=1;rounded=0;" edge="1" parent="1">
          <mxGeometry width="50" height="50" relative="1" as="geometry">
            <mxPoint x="1170" y="630" as="sourcePoint" />
            <mxPoint x="1150" y="630" as="targetPoint" />
          </mxGeometry>
        </mxCell>
      </root>
    </mxGraphModel>
  </diagram>
</mxfile>
